<svg width="175" height="115" xmlns="http://www.w3.org/2000/svg" fill="none">
 <g>
  <title>Layer 1</title>
  <path d="m123.118,95.7191l-98.6355,0c-12.1054,0 -21.91902,-9.813 -21.91902,-21.919l0,-49.3176c0,-12.1057 9.81332,-21.919 21.91902,-21.919l98.6355,0c12.106,0 21.919,9.8136 21.919,21.919l0,49.3176c0,12.106 -9.813,21.919 -21.919,21.919z" fill="white" id="svg_1"/>
  <path d="m153.257,68.3206l-27.399,0l0,-35.03c0,-7.1552 -5.231,-13.5447 -12.354,-14.2238c-8.17,-0.779 -15.0445,5.6252 -15.0445,13.6352l0,54.7981l-2.8037,0c-1.7073,0 -3.3165,-0.797 -4.3388,-2.164c-3.9898,-5.335 -10.3393,-8.796 -17.5164,-8.796c-7.177,0 -13.5265,3.461 -17.5163,8.796c-1.0223,1.367 -2.6319,2.164 -4.3391,2.164l-27.4627,0c-7.566,0 -13.6995,-6.134 -13.6995,-13.7l0,-66.4135c-5.0063,4.0174 -8.21952,10.1773 -8.21952,17.0959l0,49.3176c0,12.106 9.81332,21.919 21.91902,21.919l131.5145,0l0,-24.659c0,-1.5128 -1.227,-2.7395 -2.74,-2.7395z" fill="#CCC7B2" id="svg_2"/>
  <path d="m73.8006,112.1581c7.5659,0 13.6992,-6.134 13.6992,-13.7c0,-7.565 -6.1333,-13.699 -13.6992,-13.699c-7.5658,0 -13.6992,6.134 -13.6992,13.699c0,7.566 6.1334,13.7 13.6992,13.7z" fill="#DAE0EA" id="svg_3"/>
  <path d="m71.0605,57.3609l-43.8381,0c-3.0263,0 -5.4797,-2.4534 -5.4797,-5.4796l0,-16.4394c0,-3.0263 2.4534,-5.4797 5.4797,-5.4797l43.8381,0c3.0262,0 5.4796,2.4534 5.4796,5.4797l0,16.4394c0.0004,3.0262 -2.453,5.4796 -5.4796,5.4796z" fill="#D4C3BC" id="svg_4"/>
  <path d="m125.856,35.4415l-27.3982,0l0,16.4404l27.3982,0l0,-16.4404z" fill="white" id="svg_5"/>
  <path d="m73.8276,95.8961l-0.0273,0c-1.4157,0 -2.5498,1.147 -2.5498,2.563c0,1.416 1.1614,2.564 2.5771,2.564c1.4157,0 2.5635,-1.148 2.5635,-2.564c0,-1.416 -1.1474,-2.563 -2.5635,-2.563z" fill="#474D54" id="svg_6"/>
  <path d="m71.0605,27.3987l-43.8382,0c-4.4351,0 -8.0431,3.6084 -8.0431,8.0432l0,16.4394c0,4.4351 3.6083,8.0431 8.0431,8.0431l43.8382,0c4.4351,0 8.0431,-3.6083 8.0431,-8.0431l0,-16.4394c0.0003,-4.4352 -3.608,-8.0432 -8.0431,-8.0432zm-46.7544,24.4826l0,-16.4394c0,-1.6082 1.3084,-2.9162 2.9162,-2.9162l19.3556,0l0,22.2718l-19.3556,0c-1.6081,0 -2.9162,-1.3084 -2.9162,-2.9162zm49.6709,0c0,1.6081 -1.3084,2.9162 -2.9162,2.9162l-19.3556,0l0,-22.2718l19.3556,0c1.6081,0 2.9162,1.3084 2.9162,2.9162l0,16.4394z" fill="white" id="svg_7"/>
  <path d="m4.27212,70.8841l72.16068,0c1.4038,0 2.6278,-1.0818 2.6698,-2.4845c0.0434,-1.4516 -1.1204,-2.6424 -2.5624,-2.6424l-72.26808,0c-1.41572,0 -2.56347,1.1477 -2.56347,2.5634c0,1.4157 1.14775,2.5635 2.56347,2.5635z" fill="#695C56" id="svg_8"/>
  <path d="m97.7759,65.7572l-10.1694,0c-1.4038,0 -2.6277,1.0814 -2.6698,2.4845c-0.0437,1.4516 1.1204,2.6424 2.5625,2.6424l10.2771,0c1.4157,0 2.5637,-1.1477 2.5637,-2.5635c-0.001,-1.416 -1.1483,-2.5634 -2.5641,-2.5634z" fill="#695C56" id="svg_9"/>
  <path d="m172.436,87.6761c-1.416,0 -2.563,1.148 -2.563,2.563l0,2.74c0,0.097 -0.079,0.176 -0.177,0.176l-11.136,0l0,-22.095c0,-2.9244 -2.379,-5.3033 -5.303,-5.3033l-5.656,0l0,-41.2743c0,-13.4999 -10.983,-24.4825 -24.483,-24.4825l-98.6355,0c-13.4996,-0.0003 -24.4825,10.9826 -24.4825,24.4825l0,49.3176c0,13.5 10.9829,24.483 24.4825,24.483l33.0596,0c-0.0007,0.059 -0.0045,0.117 -0.0045,0.176c0,8.967 7.2957,16.263 16.263,16.263c8.9674,0 16.263,-7.296 16.263,-16.263c0,-0.059 -0.0037,-0.117 -0.0044,-0.176l79.6378,0c2.924,0 5.303,-2.38 5.303,-5.304l0,-2.739c0,-1.416 -1.148,-2.564 -2.564,-2.564zm-98.6357,21.919c-6.1404,0 -11.1361,-4.996 -11.1361,-11.136c0,-6.14 4.9957,-11.136 11.1361,-11.136c6.1404,0 11.1361,4.996 11.1361,11.136c0,6.14 -4.9957,11.136 -11.1361,11.136zm49.4947,-76.7167l0,60.2767l-22.272,0l0,-60.2767l0,-0.1763c0,-6.1404 4.996,-11.1361 11.136,-11.1361c6.14,0 11.136,4.9957 11.136,11.1361l0,0.1763zm-27.3993,60.2777l-6.7252,0c-2.2045,-6.371 -8.2598,-10.96 -15.3702,-10.96c-7.1104,0 -13.1657,4.589 -15.3702,10.96l-33.9476,0c-10.6726,0 -19.35556,-8.683 -19.35556,-19.356l0,-2.916l0,-5.1269l0,-41.2747c0,-10.6729 8.68296,-19.3555 19.35556,-19.3555l98.6355,0c10.673,0 19.356,8.683 19.356,19.3555l0,41.2747l-14.052,0l0,-33.0551c0,-8.9674 -7.296,-16.2631 -16.263,-16.2631c-8.968,0 -16.2633,7.2957 -16.2633,16.2631l0,60.454zm32.5263,-0.745l0,-21.527l14.052,0l0,2.916c0,8.834 -5.951,16.299 -14.052,18.611zm25.011,0.745l-15.349,0c5.783,-4.483 9.517,-11.489 9.517,-19.356l0,-2.916l5.656,0c0.097,0 0.176,0.079 0.176,0.176l0,22.096z" fill="#4A4737" id="svg_10"/>
 </g>

</svg>